@startuml
class DeleteUserUseCase {
    + DeleteUserUseCase(mapper:IMapper, dbContext:AppDbContext)
    + <<async>> Handle(request:DeleteUserCommand, cancellationToken:CancellationToken) : Task
}
class "IRequestHandler"<T> {
}
BaseUseCase <|-- DeleteUserUseCase
"IRequestHandler" <|-- "<DeleteUserCommand>" DeleteUserUseCase
@enduml
